<svg xmlns="http://www.w3.org/2000/svg" viewBox="0 0 95.7 146.49" style="fill: rgba(255, 255, 255, 0.7);">
  <path d="M0,0,34.72,20V68.79L10.62,82.3v64.18H0ZM95.7,82.3v64.18H53.16V114h0V62.47L95.7,86.6V82.29ZM73.22,105.22H60.91V114H73.22Zm0-11.1H60.91v8.75H73.22ZM88,105.22H75.64V114H88Zm0-11.1H75.64v8.75H88Z" style="fill: rgb(98,119,190);"></path>
  <path d="M53.16,62.47V114H34.72V68.79L49.6,60.45l3.56,2Z" style="fill: rgb(125, 148, 255);"></path>
  <path d="M34.73,114h.13v32.51H10.62V82.3l24.1-13.51V114Zm26.18-11.1H73.22V94.12H60.91Zm0,11.1H73.22v-8.75H60.91ZM75.64,94.12v8.75H88V94.12Zm0,19.85H88v-8.75H75.64Z" style="fill: rgb(255, 255, 255);"></path>
  <path d="M34.86,114h18.3v32.51H34.86Zm18.3-61.55V30.64L34.72,20V68.79L49.6,60.45l3.56,2h0L95.7,86.6v-10Z" style="fill: inherit;"></path>
</svg>
