<?xml version="1.0" standalone="no"?>
<!DOCTYPE svg PUBLIC "-//W3C//DTD SVG 20010904//EN"
 "http://www.w3.org/TR/2001/REC-SVG-20010904/DTD/svg10.dtd">
<svg version="1.0" xmlns="http://www.w3.org/2000/svg"
 width="256.000000pt" height="256.000000pt" viewBox="0 0 256.000000 256.000000"
 preserveAspectRatio="xMidYMid meet">
<metadata>
Created by potrace 1.14, written by Peter Selinger 2001-2017
</metadata>
<g transform="translate(0.000000,256.000000) scale(0.100000,-0.100000)"
fill="#000000" stroke="none">
<path d="M444 1279 l0 -1279 836 0 836 0 0 609 c-1 335 -3 612 -6 615 -5 5
-459 264 -491 280 -8 4 -23 12 -34 19 -11 7 -64 36 -117 66 l-96 55 0 180 c0
100 -1 186 -1 192 -1 7 -38 33 -83 59 -46 26 -99 56 -118 67 -19 11 -181 105
-360 208 -179 103 -334 192 -345 198 l-21 11 0 -1280z"/>
</g>
</svg>
